<?xml version="1.0" encoding="utf-8"?>

<!DOCTYPE svg PUBLIC "-//W3C//DTD SVG 1.1//EN" "http://www.w3.org/Graphics/SVG/1.1/DTD/svg11.dtd">
<!-- Uploaded to: SVG Repo, www.svgrepo.com, Generator: SVG Repo Mixer Tools -->
<svg height="800px" width="800px" version="1.1" id="_x32_" xmlns="http://www.w3.org/2000/svg" xmlns:xlink="http://www.w3.org/1999/xlink" 
	 viewBox="0 0 512 512"  xml:space="preserve">
<style type="text/css">
	.st0{fill:#000000;}
</style>
<g>
	<path class="st0" d="M377.109,219.446c-3.036-2.168-6.667-2.871-10.064-2.249l0.476-1.236c1.297-3.324,0.723-7.187-1.277-8.633
		l-32.468-23.438c-1.996-1.446-4.664,0.088-5.954,3.404l-5.809,8.227c-14.887-10.868-30.962-17.17-46.001-20.649
		c-31.78-7.356-46.822-20.628-54.539-29.091c-1.655-1.811-5.295-5.897-9.993-11.185l-4.371-5.58l-0.219,0.405
		c-17.673-19.946-44.082-49.935-44.082-49.935c-0.199-0.264-0.409-0.513-0.622-0.75v-9.53h9.818c2.239,0,4.052-1.81,4.052-4.046
		V53.28c0-2.235-1.814-4.046-4.052-4.046h-9.818v-4.721c0.527-0.311,1.034-0.635,1.526-0.986
		c11.388-5.937,18.825-18.352,18.997-34.772c0-0.216-0.578-2.911-1.912-1.209c-0.986,1.256-3.691,3.641-5.231,4.62
		c-3.148,1.993-5.998,3.553-6.812,1.905c1.949-3.85,0.976-12.651-0.969-13.948c-1.949-1.297-6.488,8.105-15.248,8.76
		c-10.567,0-19.135,8.565-19.135,19.128c0,7.187,3.961,13.434,9.814,16.704v4.518h-9.824c-2.229,0-4.046,1.81-4.046,4.046v11.881
		c0,2.236,1.817,4.046,4.046,4.046h9.824v8.443c-4.94,4.532-5.751,12.158-1.658,17.649c0,0,0.588,0.926,1.658,2.601v27.741
		c0,7.389,4.242,8.76,9.483,8.76c4.759,0,8.687-1.149,9.372-6.89c7.727,12.124,16.647,26.146,24.968,39.229l-16.035,30.152
		l44.769,38.993L207.11,386.74h132.863l-1.371-87.369c1.642-1.08,3.121-2.458,4.33-4.154l37.251-57.297
		C384.438,231.968,383.057,223.694,377.109,219.446z"/>
	<path class="st0" d="M349.747,475.317h-12.685V430.15h12.685v-18.919h-20.756v-14.313h-12.421h-35.994h-11.962h-36.099h-13.063
		v14.313h-20.753v18.919h12.685v45.167h-12.685v17.764h-17.872V512h186.79v-18.919h-17.869V475.317z M247.131,461.477h-14.995
		v-23.262h14.995V461.477z M281.717,461.477h-14.988v-23.262h14.988V461.477z M316.306,461.477h-14.984v-23.262h14.984V461.477z"/>
	<path class="st0" d="M244.618,113.442c-2.34,5.12-3.681,10.793-3.681,16.791c0,22.357,18.126,40.486,40.482,40.486
		c22.354,0,40.479-18.129,40.479-40.486c0-5.998-1.337-11.672-3.678-16.791l24.404-17.757c0.952-0.696,1.24-2.013,0.648-3.033
		c-0.598-1.04-1.878-1.446-2.965-0.966l-27.98,12.435c-2.013-2.377-4.309-4.499-6.818-6.363l12.584-28.294
		c0.473-1.081,0.064-2.371-0.959-2.958c-1.034-0.602-2.344-0.312-3.05,0.648l-18.365,25.255c-2.766-1.054-5.67-1.797-8.693-2.222
		l-3.3-31.172c-0.118-1.175-1.121-2.08-2.306-2.08c-1.189,0-2.188,0.905-2.31,2.08l-3.3,31.172
		c-3.016,0.425-5.924,1.168-8.686,2.215l-18.375-25.248c-0.692-0.96-2.014-1.25-3.04-0.655c-1.03,0.594-1.442,1.884-0.956,2.965
		l12.574,28.294c-2.506,1.864-4.802,3.986-6.815,6.363l-27.984-12.428c-1.08-0.487-2.367-0.082-2.962,0.952
		c-0.594,1.027-0.307,2.351,0.655,3.04L244.618,113.442z"/>
</g>
</svg>