<?xml version="1.0" encoding="iso-8859-1"?>
<!-- Uploaded to: SVG Repo, www.svgrepo.com, Generator: SVG Repo Mixer Tools -->
<!DOCTYPE svg PUBLIC "-//W3C//DTD SVG 1.1//EN" "http://www.w3.org/Graphics/SVG/1.1/DTD/svg11.dtd">
<svg fill="#000000" version="1.1" id="Capa_1" xmlns="http://www.w3.org/2000/svg" xmlns:xlink="http://www.w3.org/1999/xlink" 
	 width="800px" height="800px" viewBox="0 0 485.729 485.729"
	 xml:space="preserve">
<g>
	<path d="M252.52,71.338c-2.375-2.887-5.916-4.56-9.654-4.56c-3.738,0-7.279,1.673-9.654,4.56L2.846,351.422
		c-2.784,3.385-3.592,7.981-2.128,12.113c1.463,4.133,4.984,7.195,9.279,8.073L237,418.011c1.63,0.673,3.472,1.008,5.317,0.929
		c0.183,0.009,0.365,0.012,0.548,0.012c0.838,0,1.678-0.084,2.502-0.253l230.365-47.09c4.295-0.878,7.816-3.94,9.279-8.073
		c1.465-4.132,0.656-8.729-2.129-12.113L252.52,71.338z M229.266,390.914L35.34,351.272l193.926-235.78V390.914z M254.266,391.363
		V112.817l196.127,238.455L254.266,391.363z"/>
</g>
</svg>